<svg width="375" height="812" viewBox="0 0 375 812" fill="none" xmlns="http://www.w3.org/2000/svg">
<g clip-path="url(#clip0_64_4355)">
<rect width="375" height="812" fill="#FEFEFE"/>
<rect x="121" y="799" width="134" height="5" rx="2.5" fill="#3C3C3C"/>
<rect opacity="0.35" x="336.834" y="18.5" width="21" height="10.3333" rx="2.16667" stroke="#3C3C3C"/>
<path opacity="0.4" d="M359.334 21.6667V25.6667C360.139 25.3279 360.662 24.5398 360.662 23.6667C360.662 22.7935 360.139 22.0054 359.334 21.6667Z" fill="#3C3C3C"/>
<rect x="338.334" y="20" width="18" height="7.33333" rx="1.33333" fill="#3C3C3C"/>
<path fill-rule="evenodd" clip-rule="evenodd" d="M323.667 20.2845C325.892 20.2846 328.031 21.1387 329.644 22.6703C329.765 22.7885 329.959 22.787 330.079 22.6669L331.239 21.4966C331.3 21.4357 331.334 21.3532 331.333 21.2673C331.333 21.1815 331.298 21.0994 331.237 21.0392C327.005 16.9869 320.329 16.9869 316.097 21.0392C316.035 21.0993 316.001 21.1814 316 21.2673C315.999 21.3531 316.033 21.4356 316.094 21.4966L317.255 22.6669C317.374 22.7872 317.568 22.7887 317.69 22.6703C319.302 21.1386 321.442 20.2845 323.667 20.2845ZM323.667 24.0921C324.889 24.092 326.068 24.5459 326.974 25.3657C327.097 25.4821 327.29 25.4795 327.409 25.36L328.569 24.1897C328.63 24.1283 328.663 24.045 328.663 23.9585C328.662 23.872 328.626 23.7894 328.564 23.7293C325.805 21.1649 321.532 21.1649 318.773 23.7293C318.71 23.7894 318.675 23.872 318.674 23.9586C318.673 24.0451 318.707 24.1284 318.768 24.1897L319.927 25.36C320.047 25.4795 320.24 25.4821 320.362 25.3657C321.268 24.5465 322.446 24.0926 323.667 24.0921ZM325.989 26.6539C325.991 26.7407 325.957 26.8243 325.895 26.8851L323.89 28.9071C323.831 28.9666 323.751 29 323.667 29C323.583 29 323.503 28.9666 323.445 28.9071L321.439 26.8851C321.377 26.8243 321.343 26.7406 321.345 26.6538C321.347 26.567 321.384 26.4849 321.449 26.4267C322.729 25.3444 324.605 25.3444 325.886 26.4267C325.95 26.4849 325.988 26.5671 325.989 26.6539Z" fill="#3C3C3C"/>
<path fill-rule="evenodd" clip-rule="evenodd" d="M310 18H309C308.448 18 308 18.4477 308 19V27.6667C308 28.219 308.448 28.6667 309 28.6667H310C310.552 28.6667 311 28.219 311 27.6667V19C311 18.4477 310.552 18 310 18ZM304.333 20.3333H305.333C305.886 20.3333 306.333 20.781 306.333 21.3333V27.6667C306.333 28.219 305.886 28.6667 305.333 28.6667H304.333C303.781 28.6667 303.333 28.219 303.333 27.6667V21.3333C303.333 20.781 303.781 20.3333 304.333 20.3333ZM300.667 22.6667H299.667C299.114 22.6667 298.667 23.1144 298.667 23.6667V27.6667C298.667 28.219 299.114 28.6667 299.667 28.6667H300.667C301.219 28.6667 301.667 28.219 301.667 27.6667V23.6667C301.667 23.1144 301.219 22.6667 300.667 22.6667ZM296 24.6667H295C294.448 24.6667 294 25.1144 294 25.6667V27.6667C294 28.219 294.448 28.6667 295 28.6667H296C296.552 28.6667 297 28.219 297 27.6667V25.6667C297 25.1144 296.552 24.6667 296 24.6667Z" fill="#3C3C3C"/>
<path d="M36.856 18.1675C34.5635 18.1675 32.9302 19.7349 32.9302 21.8809V21.8955C32.9302 23.9023 34.3511 25.3818 36.3799 25.3818C37.8301 25.3818 38.7529 24.6421 39.1411 23.8071H39.2876C39.2876 23.8877 39.2803 23.9683 39.2803 24.0488C39.1997 26.0703 38.4893 27.7109 36.812 27.7109C35.8818 27.7109 35.23 27.2275 34.9517 26.4878L34.9297 26.4146H33.0693L33.084 26.4951C33.4209 28.1138 34.8711 29.2637 36.812 29.2637C39.4707 29.2637 41.0747 27.1543 41.0747 23.5947V23.5801C41.0747 19.7715 39.1118 18.1675 36.856 18.1675ZM36.8486 23.9316C35.6475 23.9316 34.7759 23.0527 34.7759 21.8296V21.8149C34.7759 20.6357 35.7061 19.7056 36.8706 19.7056C38.0425 19.7056 38.958 20.6504 38.958 21.8589V21.8735C38.958 23.0674 38.0425 23.9316 36.8486 23.9316ZM44.2331 23.7046C44.907 23.7046 45.3977 23.1992 45.3977 22.5547C45.3977 21.9028 44.907 21.3975 44.2331 21.3975C43.5666 21.3975 43.0686 21.9028 43.0686 22.5547C43.0686 23.1992 43.5666 23.7046 44.2331 23.7046ZM44.2331 29.1465C44.907 29.1465 45.3977 28.6338 45.3977 27.9893C45.3977 27.3374 44.907 26.832 44.2331 26.832C43.5666 26.832 43.0686 27.3374 43.0686 27.9893C43.0686 28.6338 43.5666 29.1465 44.2331 29.1465ZM52.2988 29H54.1079V26.9712H55.5288V25.4111H54.1079V18.4312H51.4346C49.999 20.6138 48.4975 23.0454 47.1279 25.4258V26.9712H52.2988V29ZM48.8857 25.4551V25.3452C49.9111 23.5508 51.1343 21.5952 52.2182 19.9399H52.3281V25.4551H48.8857ZM59.6687 29H61.5583V18.4312H59.676L56.9148 20.3721V22.1519L59.5442 20.2915H59.6687V29Z" fill="#3C3C3C"/>
<path fill-rule="evenodd" clip-rule="evenodd" d="M396 -166H-21V433.269C-22.3108 423.42 -22.8527 414.253 -22.8527 406.73C-27.695 327.817 -59.5732 334.912 -74.907 348.324C-107.425 425.026 -54.8959 486.358 -21 510.317V588.015C-29.86 586.522 -38.5428 584.075 -44.6432 581.949C-62.0757 564.298 -80.1531 563.346 -87.0127 565.076C-120.908 587.92 -89.0303 600.553 -68.8543 604.014C-45.6676 604.014 -30.1197 608.989 -21 613.977V637.144C-36.5803 650.6 -68.5839 659.233 -87.0127 662.42C-151.899 667.612 -189.911 677.563 -200.806 681.889C-221.789 694.868 -253.829 731.21 -214.122 772.743C-174.416 814.277 -137.05 771.013 -123.33 744.189C-84.5917 698.502 -70.8719 713.039 -68.8543 726.018C-67.8859 756.13 -118.488 788.751 -143.91 801.297C-184.585 817.911 -169.735 844.561 -157.226 855.81C-146.982 872.284 -119.969 843.367 -98.8466 814.623C-97.015 812.13 -95.1532 809.44 -93.2473 806.685C-82.1256 790.613 -69.496 772.361 -52.535 778.533C-47.1519 780.491 -42.6503 784.607 -39.1534 789.28C-33.8109 796.419 -34.166 805.902 -36.0329 814.622C-44.9099 856.083 -24.4517 859.75 -11.9579 855.81C-6.31488 853.163 -0.821747 848.829 4.13567 843.949C15.1505 833.107 33.4 832.82 32.2555 848.234C32.0482 851.026 31.6207 853.748 31.0493 856.328C29.5175 863.248 27.5841 870.227 25.6648 877.155C24.7359 880.508 23.8104 883.849 22.9353 887.165C13.393 923.328 -19.7535 999.938 -40.5312 1045.44C-43.2616 1051.42 -46.611 1057.1 -50.1406 1062.64C-83.0237 1114.31 -70.2946 1140.85 -59.17 1147.84C-13.6528 1176.91 8.21826 1076.02 13.4641 1021.94C12.606 963.061 37.6634 899.83 54.6128 866.925C58.3788 859.614 65.0189 852.436 73.0751 854.089C89.0704 857.371 90.5822 886.094 88.4694 907.678C87.8724 913.776 86.1236 919.71 84.0608 925.48C63.4809 983.042 77.3031 1001.71 87.3085 1003.77C124.498 1011.25 135.758 988.21 137.327 968.284C138.047 959.149 134.492 950.418 130.505 942.167C113.751 907.491 114.496 883.729 117.844 873.718C118.377 872.122 119.287 870.635 120.275 869.273C141.967 839.389 155.896 856.057 163.211 877.754C164.929 882.849 166.764 887.998 168.606 893.168C171.853 902.282 175.125 911.465 177.828 920.551C188.093 955.05 194.948 1019.58 197.47 1054.39C200.319 1084.94 212.073 1100.51 221.945 1107.29C227.412 1111.05 234.737 1109.51 238.794 1104.26C251.689 1087.58 245.432 1064.88 239.84 1054.39C204.975 990.015 193.838 924.6 192.628 899.939C192.628 848.386 209.189 853.321 222.418 867.553C229.037 874.673 232.473 884.025 235.37 893.305C249.139 937.424 265.367 946.376 277.538 943.115C287.724 940.387 289.758 927.814 289.111 917.29C286.24 870.582 301.306 862.551 310.053 864.895C357.788 864.895 367.521 902.39 366.148 929.583C366.013 932.258 365.789 934.935 365.566 937.613C365.051 943.784 364.536 949.957 365.102 956.101C369.559 1004.5 398.899 1000.87 414.161 992.091C445.152 973.401 414.161 916.812 394.792 890.854C361.865 849.32 368.16 822.497 375.423 814.277C429.656 773.782 467.426 831.15 479.532 864.895C513.428 988.457 548.534 968.296 561.85 942.771C590.842 855.006 549.387 805.744 516.478 786.657C508.483 782.02 498.943 781.674 489.824 783.178C450.172 789.716 427.959 784.423 421.425 780.531C382.687 751.457 400.442 728.614 414.161 720.827C443.215 704.213 431.109 674.967 421.425 662.42C382.687 647.884 400.442 617.426 414.161 604.014C480.985 556.251 529.972 558.154 546.113 565.076C601.315 573.383 609.466 557.289 606.641 548.203C617.294 516.015 589.29 496.719 573.956 491.095C513.912 485.903 433.53 549.501 400.845 581.949C399.198 583.126 397.584 584.228 396 585.257V517.487C414.346 498.333 410.621 474.774 404.477 462.541C401.977 460.196 399.108 458.945 396 458.562V-166Z" fill="#5D4037"/>
</g>
<defs>
<clipPath id="clip0_64_4355">
<rect width="375" height="812" fill="white"/>
</clipPath>
</defs>
</svg>
