<svg width="375" height="812" viewBox="0 0 375 812" fill="none" xmlns="http://www.w3.org/2000/svg">
<path fill-rule="evenodd" clip-rule="evenodd" d="M396 -166H-21V433.269C-22.3108 423.42 -22.8527 414.253 -22.8527 406.73C-27.695 327.817 -59.5732 334.912 -74.907 348.324C-107.425 425.026 -54.8959 486.358 -21 510.317V588.015C-29.86 586.522 -38.5428 584.075 -44.6432 581.949C-62.0757 564.298 -80.1531 563.346 -87.0127 565.076C-120.908 587.92 -89.0303 600.553 -68.8543 604.014C-45.6676 604.014 -30.1197 608.989 -21 613.977V637.144C-36.5803 650.6 -68.5839 659.233 -87.0127 662.42C-151.899 667.612 -189.911 677.563 -200.806 681.889C-221.789 694.868 -253.829 731.21 -214.122 772.743C-174.416 814.277 -137.05 771.013 -123.33 744.189C-84.5917 698.502 -70.8719 713.039 -68.8543 726.018C-67.8859 756.13 -118.488 788.751 -143.91 801.297C-184.585 817.911 -169.735 844.561 -157.226 855.81C-146.982 872.284 -119.969 843.367 -98.8466 814.623C-97.015 812.13 -95.1532 809.44 -93.2473 806.685C-82.1256 790.613 -69.496 772.361 -52.535 778.533C-47.1519 780.491 -42.6503 784.607 -39.1534 789.28C-33.8109 796.419 -34.166 805.902 -36.0329 814.622C-44.9099 856.083 -24.4517 859.75 -11.9579 855.81C-6.31488 853.163 -0.821747 848.829 4.13567 843.949C15.1505 833.107 33.4 832.82 32.2555 848.234C32.0482 851.026 31.6207 853.748 31.0493 856.328C29.5175 863.248 27.5841 870.227 25.6648 877.155C24.7359 880.508 23.8104 883.849 22.9353 887.165C13.393 923.328 -19.7535 999.938 -40.5312 1045.44C-43.2616 1051.42 -46.611 1057.1 -50.1406 1062.64C-83.0237 1114.31 -70.2946 1140.85 -59.17 1147.84C-13.6528 1176.91 8.21826 1076.02 13.4641 1021.94C12.606 963.061 37.6634 899.83 54.6128 866.925C58.3788 859.614 65.0189 852.436 73.0751 854.089C89.0704 857.371 90.5822 886.094 88.4694 907.678C87.8724 913.776 86.1236 919.71 84.0608 925.48C63.4809 983.042 77.3031 1001.71 87.3085 1003.77C124.498 1011.25 135.758 988.21 137.327 968.284C138.047 959.149 134.492 950.418 130.505 942.167C113.751 907.491 114.496 883.729 117.844 873.718C118.377 872.122 119.287 870.635 120.275 869.273C141.967 839.389 155.896 856.057 163.211 877.754C164.929 882.849 166.764 887.998 168.606 893.168C171.853 902.282 175.125 911.465 177.828 920.551C188.093 955.05 194.948 1019.58 197.47 1054.39C200.319 1084.94 212.073 1100.51 221.945 1107.29C227.412 1111.05 234.737 1109.51 238.794 1104.26C251.689 1087.58 245.432 1064.88 239.84 1054.39C204.975 990.015 193.838 924.6 192.628 899.939C192.628 848.386 209.189 853.321 222.418 867.553C229.037 874.673 232.473 884.025 235.37 893.305C249.139 937.424 265.367 946.376 277.538 943.115C287.724 940.387 289.758 927.814 289.111 917.29C286.24 870.582 301.306 862.551 310.053 864.895C357.788 864.895 367.521 902.39 366.148 929.583C366.013 932.258 365.789 934.935 365.566 937.613C365.051 943.784 364.536 949.957 365.102 956.101C369.559 1004.5 398.899 1000.87 414.161 992.091C445.152 973.401 414.161 916.812 394.792 890.854C361.865 849.32 368.16 822.497 375.423 814.277C429.656 773.782 467.426 831.15 479.532 864.895C513.428 988.457 548.534 968.296 561.85 942.771C590.842 855.006 549.387 805.744 516.478 786.657C508.483 782.02 498.943 781.674 489.824 783.178C450.172 789.716 427.959 784.423 421.425 780.531C382.687 751.457 400.442 728.614 414.161 720.827C443.215 704.213 431.109 674.967 421.425 662.42C382.687 647.884 400.442 617.426 414.161 604.014C480.985 556.251 529.972 558.154 546.113 565.076C601.315 573.383 609.466 557.289 606.641 548.203C617.294 516.015 589.29 496.719 573.956 491.095C513.912 485.903 433.53 549.501 400.845 581.949C399.198 583.126 397.584 584.228 396 585.257V517.487C414.346 498.333 410.621 474.774 404.477 462.541C401.977 460.196 399.108 458.945 396 458.562V-166Z" fill="#5D4037"/>
</svg>
